<?xml version="1.0" encoding="UTF-8" standalone="no"?>
<!DOCTYPE svg PUBLIC "-//W3C//DTD SVG 1.1//EN" "http://www.w3.org/Graphics/SVG/1.1/DTD/svg11.dtd">
<!-- Created with Vectornator (http://vectornator.io/) -->
<svg height="100%" stroke-miterlimit="10" style="fill-rule:nonzero;clip-rule:evenodd;stroke-linecap:round;stroke-linejoin:round;" version="1.1" viewBox="0 0 1088.54 1080" width="100%" xml:space="preserve" xmlns="http://www.w3.org/2000/svg" xmlns:vectornator="http://vectornator.io" xmlns:xlink="http://www.w3.org/1999/xlink">
<defs/>
<clipPath id="ArtboardFrame">
<rect height="1080" width="1088.54" x="0" y="0"/>
</clipPath>
<g clip-path="url(#ArtboardFrame)" id="Layer-1" vectornator:layerName="Layer 1">
<path d="M540.705 0.000318211C507.001-0.0985322 479.926 22.8457 480.21 51.2732L484.298 458.668L471.02 458.731L461.799 458.795L421.807 459.016C403.367 459.113 386.584 463.491 373.767 470.583C372.876 470.977 371.938 471.333 371.073 471.787L370.724 471.977C364.197 475.408 359.165 480.274 355.545 486.015C351.3 491.852 348.836 498.239 348.891 505.061L348.891 505.473C348.896 506.1 349.035 506.721 349.081 507.342C348.471 519.998 352.532 533.947 361.693 546.827L482.777 717.029C490.872 728.408 501.693 737.153 513.325 742.697C514.281 743.251 515.221 743.819 516.241 744.313L516.589 744.503C524.069 748.131 532.499 749.636 541.18 749.447C542.096 749.458 543.061 749.544 543.968 749.51C548.48 749.342 552.834 748.541 557.024 747.228C574.137 742.775 590.781 731.982 602.118 716.395L726.846 544.894C736.272 531.934 740.354 517.949 739.522 505.314C739.559 504.675 739.654 504.026 739.648 503.381L739.648 503.064C739.586 495.176 736.303 487.772 730.617 481.325C730.046 480.678 729.399 480.02 728.779 479.392C728.748 479.358 728.716 479.363 728.684 479.329C728.101 478.741 727.535 478.093 726.909 477.523C726.585 477.227 726.231 476.99 725.895 476.699C725.865 476.672 725.8 476.662 725.769 476.635C725.102 476.048 724.454 475.506 723.741 474.956C723.384 474.677 723.062 474.343 722.695 474.069C722.282 473.76 721.821 473.514 721.396 473.213C721.124 473.032 720.818 472.819 720.54 472.643C713.802 468.027 705.599 464.264 696.361 461.678C687.123 459.092 676.908 457.692 666.098 457.749L621.892 457.971L607.505 458.034L603.417 51.6218C603.133 23.1943 575.58 0.0991918 541.877 0.000318211L540.705 0.000318211Z" fill="#000002" fill-rule="nonzero" opacity="0.962441" stroke="none" vectornator:layerName="Curve 14"/>
<path d="M59.4375 791.656C26.6077 791.656 0 818.841 0 852.375L0 1019.28C-2.54313e-06 1052.81 26.6077 1080 59.4375 1080L1029.09 1080C1061.92 1080 1088.53 1052.81 1088.53 1019.28L1088.53 852.375C1088.53 818.841 1061.92 791.656 1029.09 791.656L59.4375 791.656ZM929.438 888.094C955.808 888.094 977.188 909.473 977.188 935.844C977.188 962.215 955.808 983.563 929.438 983.562C903.067 983.562 881.688 962.215 881.688 935.844C881.688 909.473 903.067 888.094 929.438 888.094Z" fill="#000002" fill-rule="nonzero" opacity="0.962441" stroke="none" vectornator:layerName="Curve 15"/>
</g>
</svg>
