<?xml version="1.0" encoding="UTF-8" standalone="no"?>
<!DOCTYPE svg PUBLIC "-//W3C//DTD SVG 1.1//EN" "http://www.w3.org/Graphics/SVG/1.1/DTD/svg11.dtd">
<!-- Created with Vectornator (http://vectornator.io/) -->
<svg height="100%" stroke-miterlimit="10" style="fill-rule:nonzero;clip-rule:evenodd;stroke-linecap:round;stroke-linejoin:round;" version="1.1" viewBox="0 0 1088.54 1080" width="100%" xml:space="preserve" xmlns="http://www.w3.org/2000/svg" xmlns:vectornator="http://vectornator.io" xmlns:xlink="http://www.w3.org/1999/xlink">
<defs/>
<g id="Layer-1" vectornator:layerName="Layer 1">
<path d="M793.106 216.974C813.314 196.766 846.078 196.766 866.287 216.974L867.285 217.973C887.494 238.181 887.494 270.946 867.285 291.154L295.414 863.026C275.205 883.234 242.441 883.234 222.232 863.026L221.234 862.027C201.025 841.819 201.025 809.054 221.234 788.846L793.106 216.974Z" fill="#000002" fill-rule="nonzero" opacity="1" stroke="none" vectornator:layerName="Rectangle 1"/>
<path d="M295.414 216.974C275.205 196.766 242.441 196.766 222.232 216.974L221.234 217.973C201.025 238.181 201.025 270.946 221.234 291.154L793.106 863.026C813.314 883.234 846.078 883.234 866.287 863.026L867.285 862.027C887.494 841.819 887.494 809.054 867.285 788.846L295.414 216.974Z" fill="#000002" fill-rule="nonzero" opacity="1" stroke="none" vectornator:layerName="Rectangle 2"/>
<path d="M544.269 299.103C494.98 299.103 447.295 305.648 401.889 316.479L436.39 351.043C470.973 343.518 507.092 338.98 544.269 338.98C581.429 338.98 617.517 343.524 652.086 351.043L686.649 316.479C641.246 305.649 593.556 299.103 544.269 299.103Z" fill="#000002" fill-rule="nonzero" opacity="1" stroke="none" vectornator:layerName="Curve 6"/>
<path d="M280.135 357.043C232.941 377.181 190.69 400.448 153.443 423.608L153.443 486.985C192.687 457.454 248.152 420.865 314.511 391.419L280.135 357.043Z" fill="#000002" fill-rule="nonzero" opacity="1" stroke="none" vectornator:layerName="Curve 7"/>
<path d="M808.404 357.043L773.965 391.419C908.185 450.975 998.348 539.987 998.348 539.987C998.348 539.987 908.185 628.999 773.965 688.554L808.404 722.993C975.462 651.71 1088.54 539.987 1088.54 539.987C1088.54 539.987 975.462 428.326 808.404 357.043Z" fill="#000002" fill-rule="nonzero" opacity="1" stroke="none" vectornator:layerName="Curve 8"/>
<path d="M153.443 592.989L153.443 656.366C190.69 679.525 232.94 702.855 280.135 722.993L314.511 688.554C248.153 659.108 192.687 622.519 153.443 592.989Z" fill="#000002" fill-rule="nonzero" opacity="1" stroke="none" vectornator:layerName="Curve 9"/>
<path d="M436.453 728.931L401.889 763.557C447.292 774.387 494.983 780.933 544.269 780.933C593.558 780.933 641.244 774.325 686.649 763.495L652.086 728.931C617.508 736.453 581.439 740.994 544.269 740.994C507.102 740.994 471.027 736.452 436.453 728.931Z" fill="#000002" fill-rule="nonzero" opacity="1" stroke="none" vectornator:layerName="Curve 10"/>
<path d="M153.443 423.608C58.8419 482.428 0.000291961 539.987 0 539.987C-3.69202e-05 539.987 58.8418 597.546 153.443 656.366L153.443 592.989C113.315 562.793 90.1907 539.987 90.1907 539.987C90.1907 539.987 113.315 517.181 153.443 486.985L153.443 423.608Z" fill="#000002" fill-rule="nonzero" opacity="1" stroke="none" vectornator:layerName="Curve 11"/>
<path d="M544.26 337.402C509.186 337.402 476.183 346.322 447.414 362.005L544.26 458.851L641.105 362.005C612.336 346.322 579.333 337.402 544.26 337.402ZM366.265 443.155C350.581 471.924 341.662 504.927 341.662 540C341.662 575.073 350.582 608.077 366.265 636.845L463.11 540L366.265 443.155ZM722.254 443.155L625.409 540L722.254 636.845C737.938 608.076 746.857 575.073 746.857 540C746.857 504.927 737.938 471.923 722.254 443.155ZM544.26 621.149L447.414 717.995C476.183 733.678 509.186 742.598 544.26 742.598C579.333 742.598 612.336 733.678 641.105 717.995L544.26 621.149Z" fill="#000002" fill-rule="nonzero" opacity="1" stroke="none" vectornator:layerName="Curve 3"/>
</g>
</svg>
