<?xml version="1.0" encoding="UTF-8" standalone="no"?>
<!DOCTYPE svg PUBLIC "-//W3C//DTD SVG 1.1//EN" "http://www.w3.org/Graphics/SVG/1.1/DTD/svg11.dtd">
<!-- Created with Vectornator (http://vectornator.io/) -->
<svg height="100%" stroke-miterlimit="10" style="fill-rule:nonzero;clip-rule:evenodd;stroke-linecap:round;stroke-linejoin:round;" version="1.1" viewBox="0 0 1088.54 1080" width="100%" xml:space="preserve" xmlns="http://www.w3.org/2000/svg" xmlns:vectornator="http://vectornator.io" xmlns:xlink="http://www.w3.org/1999/xlink">
<defs/>
<clipPath id="ArtboardFrame">
<rect height="1080" width="1088.54" x="0" y="0"/>
</clipPath>
<g clip-path="url(#ArtboardFrame)" id="Layer-1" vectornator:layerName="Layer 1">
<path d="M36.4062 0C-2.53207 5.08626e-06-11.673 24.8187 15.9688 55.4375L467.562 555.656L467.562 1080L621 968.719L621 733.531C564.77 698.569 529.781 664.344 529.781 664.344C529.781 664.344 564.77 630.118 621 595.156L621 555.625L642.594 531.688C641.793 528.848 641.25 525.908 641.25 522.812C641.25 504.674 655.955 489.969 674.094 489.969C676.039 489.969 677.898 490.238 679.75 490.562L1072.56 55.4375C1100.2 24.8187 1091.06 0 1052.12 0L36.4062 0Z" fill="#000002" fill-rule="nonzero" opacity="0.962441" stroke="none" vectornator:layerName="Curve 12"/>
<path d="M940.82 502.843C950.924 492.739 967.306 492.739 977.409 502.843L977.909 503.342C988.013 513.446 988.013 529.828 977.909 539.932L691.983 825.858C681.879 835.961 665.497 835.961 655.394 825.858L654.894 825.358C644.79 815.254 644.79 798.873 654.894 788.769L940.82 502.843Z" fill="#000002" fill-rule="nonzero" opacity="1" stroke="none" vectornator:layerName="Rectangle 1"/>
<path d="M691.983 502.843C681.879 492.739 665.497 492.739 655.394 502.843L654.894 503.342C644.79 513.446 644.79 529.828 654.894 539.932L940.82 825.858C950.924 835.961 967.306 835.961 977.409 825.858L977.909 825.358C988.013 815.254 988.013 798.873 977.909 788.769L691.983 502.843Z" fill="#000002" fill-rule="nonzero" opacity="1" stroke="none" vectornator:layerName="Rectangle 2"/>
<path d="M816.406 543.906C791.763 543.906 767.921 547.179 745.219 552.594L762.469 569.875C779.759 566.113 797.818 563.844 816.406 563.844C834.986 563.844 853.029 566.116 870.312 569.875L887.594 552.594C864.893 547.179 841.049 543.906 816.406 543.906Z" fill="#000002" fill-rule="nonzero" opacity="1" stroke="none" vectornator:layerName="Curve 6"/>
<path d="M684.344 572.875C660.747 582.944 639.623 594.577 621 606.156L621 637.844C640.621 623.079 668.353 604.785 701.531 590.062L684.344 572.875Z" fill="#000002" fill-rule="nonzero" opacity="1" stroke="none" vectornator:layerName="Curve 7"/>
<path d="M948.469 572.875L931.25 590.062C998.358 619.839 1043.44 664.344 1043.44 664.344C1043.44 664.344 998.358 708.848 931.25 738.625L948.469 755.844C1032 720.203 1088.53 664.344 1088.53 664.344C1088.53 664.344 1032 608.516 948.469 572.875Z" fill="#000002" fill-rule="nonzero" opacity="1" stroke="none" vectornator:layerName="Curve 8"/>
<path d="M621 690.844L621 722.531C639.623 734.111 660.747 745.775 684.344 755.844L701.531 738.625C668.353 723.902 640.621 705.609 621 690.844Z" fill="#000002" fill-rule="nonzero" opacity="1" stroke="none" vectornator:layerName="Curve 9"/>
<path d="M762.5 758.812L745.219 776.125C767.92 781.54 791.764 784.813 816.406 784.812C841.05 784.812 864.892 781.509 887.594 776.094L870.312 758.812C853.024 762.573 834.991 764.844 816.406 764.844C797.823 764.844 779.787 762.573 762.5 758.812Z" fill="#000002" fill-rule="nonzero" opacity="1" stroke="none" vectornator:layerName="Curve 10"/>
<path d="M621 606.156C573.701 635.565 544.281 664.344 544.281 664.344C544.281 664.344 573.701 693.122 621 722.531L621 690.844C600.937 675.746 589.375 664.344 589.375 664.344C589.375 664.344 600.937 652.941 621 637.844L621 606.156Z" fill="#000002" fill-rule="nonzero" opacity="1" stroke="none" vectornator:layerName="Curve 11"/>
<path d="M816.401 563.055C798.865 563.055 782.364 567.515 767.98 575.356L816.401 623.777L864.822 575.356C850.439 567.515 833.937 563.055 816.401 563.055ZM727.407 615.929C719.566 630.313 715.106 646.814 715.106 664.35C715.106 681.886 719.566 698.387 727.407 712.771L775.828 664.35L727.407 615.929ZM905.396 615.929L856.975 664.35L905.396 712.771C913.237 698.387 917.697 681.886 917.697 664.35C917.697 646.814 913.237 630.313 905.396 615.929ZM816.401 704.924L767.98 753.345C782.364 761.186 798.865 765.646 816.401 765.646C833.937 765.646 850.438 761.186 864.822 753.345L816.401 704.924Z" fill="#000002" fill-rule="nonzero" opacity="1" stroke="none" vectornator:layerName="Curve 3"/>
</g>
</svg>
