<?xml version="1.0" encoding="UTF-8" standalone="no"?>
<!DOCTYPE svg PUBLIC "-//W3C//DTD SVG 1.1//EN" "http://www.w3.org/Graphics/SVG/1.1/DTD/svg11.dtd">
<!-- Created with Vectornator (http://vectornator.io/) -->
<svg height="100%" stroke-miterlimit="10" style="fill-rule:nonzero;clip-rule:evenodd;stroke-linecap:round;stroke-linejoin:round;" version="1.1" viewBox="0 0 1088.54 1080" width="100%" xml:space="preserve" xmlns="http://www.w3.org/2000/svg" xmlns:vectornator="http://vectornator.io" xmlns:xlink="http://www.w3.org/1999/xlink">
<defs/>
<clipPath id="ArtboardFrame">
<rect height="1080" width="1088.54" x="0" y="0"/>
</clipPath>
<g clip-path="url(#ArtboardFrame)" id="Layer-1" vectornator:layerName="Layer 1">
<g opacity="1" vectornator:layerName="Group 1">
<path d="M854.418 407.57C870.432 387.019 896.397 387.019 912.411 407.57L913.203 408.586C929.217 429.137 929.217 462.458 913.203 483.009L460.013 1064.59C443.999 1085.14 418.034 1085.14 402.019 1064.59L401.228 1063.57C385.214 1043.02 385.214 1009.7 401.228 989.148L854.418 407.57Z" fill="#000002" fill-rule="nonzero" opacity="1" stroke="none" vectornator:layerName="Rectangle 1"/>
<path d="M460.013 407.57C443.999 387.019 418.034 387.019 402.019 407.57L401.228 408.586C385.214 429.137 385.214 462.458 401.228 483.009L854.418 1064.59C870.432 1085.14 896.397 1085.14 912.411 1064.59L913.203 1063.57C929.217 1043.02 929.217 1009.7 913.203 989.148L460.013 407.57Z" fill="#000002" fill-rule="nonzero" opacity="1" stroke="none" vectornator:layerName="Rectangle 2"/>
<path d="M657.223 491.093C618.163 491.093 580.374 497.749 544.392 508.764L571.733 543.914C599.138 536.261 627.761 531.646 657.223 531.646C686.671 531.646 715.269 536.268 742.664 543.914L770.054 508.764C734.074 497.75 696.281 491.093 657.223 491.093Z" fill="#000002" fill-rule="nonzero" opacity="1" stroke="none" vectornator:layerName="Curve 6"/>
<path d="M447.905 550.016C410.505 570.496 377.023 594.158 347.506 617.711L347.506 682.163C378.606 652.132 422.56 614.922 475.147 584.976L447.905 550.016Z" fill="#000002" fill-rule="nonzero" opacity="1" stroke="none" vectornator:layerName="Curve 7"/>
<path d="M866.541 550.016L839.249 584.976C945.615 645.542 1017.07 736.065 1017.07 736.065C1017.07 736.065 945.614 826.588 839.249 887.154L866.541 922.177C998.929 849.684 1088.54 736.065 1088.54 736.065C1088.54 736.065 998.929 622.51 866.541 550.016Z" fill="#000002" fill-rule="nonzero" opacity="1" stroke="none" vectornator:layerName="Curve 8"/>
<path d="M347.506 789.966L347.506 854.419C377.023 877.972 410.505 901.698 447.905 922.177L475.147 887.154C422.56 857.208 378.606 819.998 347.506 789.966Z" fill="#000002" fill-rule="nonzero" opacity="1" stroke="none" vectornator:layerName="Curve 9"/>
<path d="M571.782 928.216L544.392 963.43C580.372 974.443 618.165 981.1 657.223 981.1C696.283 981.1 734.072 974.381 770.054 963.366L742.664 928.216C715.262 935.866 686.679 940.484 657.223 940.483C627.769 940.483 599.181 935.865 571.782 928.216Z" fill="#000002" fill-rule="nonzero" opacity="1" stroke="none" vectornator:layerName="Curve 10"/>
<path d="M347.506 617.711C272.538 677.529 225.908 736.065 225.908 736.065C225.908 736.065 272.538 794.601 347.506 854.419L347.506 789.966C315.706 759.258 297.381 736.065 297.381 736.065C297.381 736.065 315.706 712.872 347.506 682.163L347.506 617.711Z" fill="#000002" fill-rule="nonzero" opacity="1" stroke="none" vectornator:layerName="Curve 11"/>
<path d="M657.215 530.042C629.421 530.042 603.267 539.113 580.469 555.063L657.215 653.552L733.962 555.063C711.164 539.113 685.01 530.042 657.215 530.042ZM516.16 637.589C503.732 666.847 496.663 700.41 496.663 736.078C496.663 771.747 503.732 805.31 516.16 834.567L592.907 736.078L516.16 637.589ZM798.27 637.589L721.524 736.078L798.27 834.567C810.699 805.31 817.767 771.747 817.767 736.078C817.767 700.41 810.699 666.846 798.27 637.589ZM657.215 818.605L580.469 917.094C603.267 933.043 629.421 942.114 657.215 942.114C685.01 942.114 711.164 933.044 733.962 917.094L657.215 818.605Z" fill="#000002" fill-rule="nonzero" opacity="1" stroke="none" vectornator:layerName="Curve 3"/>
</g>
<path d="M-14.6209-49.9538C-39.4853-49.9538-45.3223-34.1056-27.6715-14.5538L260.697 304.865L260.697 639.688L358.676 568.629L358.676 304.845L647.024-14.5538C664.675-34.1057 658.838-49.9538 633.974-49.9538L-14.6209-49.9538Z" fill="#000002" fill-rule="nonzero" opacity="0.962441" stroke="none" vectornator:layerName="Curve 4"/>
</g>
</svg>
