<?xml version="1.0" encoding="UTF-8" standalone="no"?>
<!DOCTYPE svg PUBLIC "-//W3C//DTD SVG 1.1//EN" "http://www.w3.org/Graphics/SVG/1.1/DTD/svg11.dtd">
<!-- Created with Vectornator (http://vectornator.io/) -->
<svg height="100%" stroke-miterlimit="10" style="fill-rule:nonzero;clip-rule:evenodd;stroke-linecap:round;stroke-linejoin:round;" version="1.1" viewBox="0 0 1088.54 1080" width="100%" xml:space="preserve" xmlns="http://www.w3.org/2000/svg" xmlns:vectornator="http://vectornator.io" xmlns:xlink="http://www.w3.org/1999/xlink">
<defs/>
<clipPath id="ArtboardFrame">
<rect height="1080" width="1088.54" x="0" y="0"/>
</clipPath>
<g clip-path="url(#ArtboardFrame)" id="Layer-1" vectornator:layerName="Layer 1">
<path d="M549.288 2.54729C449.894 3.37715 348.324 32.3939 260.6 88.141C161.678 151.004 84.2034 244.886 36.8188 366.454C25.8967 394.475 39.7351 426.063 67.7563 436.985C95.7776 447.907 127.365 434.037 138.288 406.016C177.232 306.104 239.588 230.517 319.006 180.047C389.231 135.42 470.88 112.116 550.225 111.454C613.249 110.927 669.497 121.807 719.881 142.672C763.68 160.811 802.558 186.307 837.069 218.016C853.762 233.354 868.994 249.994 883.194 267.516L856.1 276.922C843.62 281.259 833.477 288.761 826.788 297.61C826.295 298.143 825.777 298.658 825.319 299.235L825.131 299.454C821.674 303.81 819.62 309.036 818.788 314.641C817.557 320.469 817.729 326.362 819.694 332.016L819.788 332.329C819.968 332.849 820.238 333.323 820.444 333.829C823.607 344.482 830.308 355.151 840.163 363.735L970.413 477.172C979.119 484.756 988.925 489.502 998.381 491.422C999.186 491.662 999.988 491.934 1000.82 492.11L1001.1 492.172C1007.2 493.459 1013.36 492.771 1019.19 490.61C1019.82 490.408 1020.46 490.254 1021.07 490.016C1024.08 488.836 1026.82 487.167 1029.29 485.11C1039.64 477.461 1047.88 464.674 1051.16 449.11L1087.32 277.86C1090.05 264.92 1088.83 252.35 1084.69 242.047C1084.54 241.508 1084.44 240.957 1084.26 240.422L1084.16 240.141C1081.89 233.603 1077.56 228.215 1071.88 224.172C1071.31 223.766 1070.7 223.394 1070.1 223.016C1070.07 222.995 1070.04 222.974 1070.01 222.954C1069.44 222.6 1068.9 222.22 1068.32 221.891C1068.02 221.72 1067.69 221.586 1067.38 221.422C1067.35 221.407 1067.32 221.406 1067.29 221.391C1066.67 221.057 1066.05 220.746 1065.41 220.454C1065.09 220.304 1064.77 220.128 1064.44 219.985C1064.08 219.824 1063.69 219.699 1063.32 219.547C1063.08 219.46 1062.84 219.379 1062.6 219.297C1056.73 217.019 1050.1 215.782 1043.1 215.766C1036.1 215.75 1028.76 216.943 1021.44 219.485L991.475 229.891C967.955 196.777 941.281 165.843 910.756 137.797C867.16 97.7416 817.598 65.2506 761.569 42.0473C697.657 15.5799 626.882 1.89946 549.288 2.54729Z" fill="#000002" fill-rule="nonzero" opacity="0.962441" stroke="none" vectornator:layerName="Curve 8"/>
<path d="M83.4126 589.11C78.8338 588.855 74.2906 589.651 69.9126 591.266C69.2881 591.467 68.6442 591.592 68.0376 591.829C65.0231 593.005 62.2925 594.681 59.8188 596.735C49.4592 604.369 41.1872 617.144 37.8813 632.704L1.47508 803.891C-1.27329 816.827-0.0525638 829.426 4.06883 839.735C4.2233 840.274 4.32098 840.825 4.50633 841.36L4.60008 841.641C6.86288 848.182 11.1766 853.559 16.8501 857.61C17.4198 858.017 18.0342 858.387 18.6313 858.766C18.6623 858.787 18.6939 858.808 18.7251 858.829C19.2866 859.183 19.8279 859.561 20.4126 859.891C20.7156 860.062 21.0408 860.195 21.3501 860.36C21.3782 860.375 21.4153 860.376 21.4438 860.391C22.0619 860.726 22.6795 861.035 23.3188 861.329C23.6395 861.479 23.9614 861.654 24.2876 861.797C24.6547 861.959 25.0392 862.113 25.4126 862.266C25.6481 862.354 25.8932 862.433 26.1313 862.516C32.0031 864.803 38.6343 866.022 45.6313 866.047C52.6282 866.073 59.968 864.892 67.2876 862.36L97.2251 852.016C120.704 885.169 147.354 916.105 177.85 944.204C221.39 984.32 270.916 1016.89 326.913 1040.17C390.787 1066.73 461.537 1080.52 539.131 1079.98C638.526 1079.29 740.142 1050.42 827.944 994.797C926.953 932.073 1004.58 838.267 1052.13 716.766C1063.09 688.76 1049.26 657.165 1021.26 646.204C1014.25 643.463 1007.05 642.293 999.975 642.485C978.762 643.059 958.915 656.074 950.694 677.079C911.61 776.936 849.151 852.439 769.663 902.797C699.375 947.326 617.695 970.527 538.35 971.079C475.325 971.516 419.08 960.545 368.725 939.61C324.952 921.41 286.098 895.867 251.631 864.11C234.956 848.746 219.738 832.089 205.569 814.547L232.694 805.172C245.18 800.853 255.336 793.356 262.038 784.516C262.531 783.983 263.047 783.467 263.506 782.891L263.694 782.672C267.158 778.321 269.229 773.088 270.069 767.485C271.307 761.658 271.151 755.766 269.194 750.11L269.1 749.797C268.92 749.277 268.649 748.803 268.444 748.297C265.295 737.64 258.599 726.988 248.756 718.391L118.663 604.766C109.966 597.17 100.18 592.387 90.7251 590.454C89.9207 590.213 89.1188 589.943 88.2876 589.766L88.0063 589.704C86.482 589.38 84.9388 589.195 83.4126 589.11Z" fill="#000002" fill-rule="nonzero" opacity="0.962441" stroke="none" vectornator:layerName="Curve 9"/>
</g>
</svg>
